<svg xmlns="http://www.w3.org/2000/svg" xmlns:xlink="http://www.w3.org/1999/xlink" id="Layer_1" x="0" y="0" version="1.1" viewBox="0 0 636 300" style="enable-background:new 0 0 636 300" xml:space="preserve"><style type="text/css">.st2{fill:#f7b548}.st3{fill:#6ba8f1}.st4{fill:#bdd8f9}.st6{fill:#fff}.st37{fill:#0064da}.st38{fill:#3e8eed}.st40{fill:#b3afab}.st58{fill:#605d5a}.st59{fill:#797673}.st93{fill:#a3c9f6}.st102{fill:#84817d}.st125{fill:#cedb59}.st128{fill:#9c9894}.st139{fill:#cae0fa}.st140{fill:#4995ee}</style><g><path d="M299.5,215.59c-4.33,1.37-2.52,5.23,2.13,5.21c21.02-0.11,42.15,1.03,52.54,1.92 c13.15,1.13,23.04-0.76,26.18-3.22c2.5-1.96,1.71-5.51-4.54-6.23C361.96,211.69,303.45,214.35,299.5,215.59z" class="st59"/><path d="M331.99,212.17c-36.82,1.36-42.82,5.82-21.9,5.95c21.2,0.13,34.13,0.8,44.53,1.69 c23.7,2.02,33.73-5.41,19.69-6.76C360.38,211.71,340.17,211.86,331.99,212.17z" class="st40"/><polygon points="359 215.08 353.14 216.48 315.16 184.81 349.16 185.29" class="st58"/><polygon points="353.31 216.49 316.84 216.04 306.62 184.79 342.84 184.87" class="st59"/><path d="M446.96,31.17l-3.72-0.42c1.29,0.3,2.26,1.4,2.23,2.79l-3,162c-0.03,1.62-1.38,2.91-3.03,2.91l4.58-0.33 c1.66,0.01,3.02-1.28,3.04-2.91l3.01-161.12C450.12,32.38,448.7,31.06,446.96,31.17z" class="st40"/><polygon points="224.2 52.29 441.28 35.84 440.65 195.32 221.66 190.07" class="st93"/><path d="M269.08,229.6c-5.7,2.62-4.98,8.44,0.45,9.73c3.27,0.78,10.06,1.39,15.62,1.74 c36.13,2.24,58.26,5.98,76.12,9.67c22.72,4.7,37.9,0.28,43.64-6.45c4.59-5.37,1.66-11.35-9.21-14.07 C371.72,224.2,275.88,226.48,269.08,229.6z" class="st59"/><path d="M321.39,222.99c-18.74,0.02-32.8,0.82-42.3,2.64c-5.12,0.98-20.87,7.58-9.55,10.3 c3.27,0.79,8.35,1.24,13.97,1.65c36.12,2.62,58.26,5.94,76.13,9.61c41.05,8.42,59.39-11.88,34.89-17.25 C370.41,224.64,335.46,222.97,321.39,222.99z" class="st40"/><path d="M275.37,233.04c61.95,0.81,93.32,7.84,100.47,9.49c0.89,0.2,1.78-0.03,2.44-0.65 c2-1.87,6.69-6.13,12.22-10.11c0.62-0.45,0.39-1.44-0.37-1.59c-60.5-12.09-102.06-5.82-102.06-5.82 c-3.72,0.98-9.72,4.26-13.25,7.09C274.19,231.97,274.55,233.03,275.37,233.04z" class="st59"/><polygon points="345.84 116.45 345.71 110.36 415.75 108.84 415.88 115.07" class="st3"/><polygon points="345.88 128.65 345.74 122.56 415.98 121.21 416.12 127.45" class="st3"/><polygon points="345.9 140.84 345.8 134.75 398.86 134.55 398.96 140.75" class="st3"/><polygon points="337.4 64.56 337.21 58.49 385.24 54.84 385.43 61.01" class="st3"/><polygon points="328.64 42.91 229.74 52.06 227.18 190.09 326.32 190.41" class="st102"/><polygon points="245.73 70.11 245.53 64.21 286.57 61.26 286.78 67.23" class="st40"/><polygon points="258.72 82.61 258.52 76.69 299.81 73.96 300.01 79.96" class="st40"/><polygon points="258.75 96.05 258.58 90.13 307.62 87.35 307.8 93.37" class="st40"/><polygon points="245.35 110.12 245.23 104.22 288.92 102.39 289.04 108.37" class="st40"/><polygon points="259.1 122.92 258.97 117 306.24 115.12 306.37 121.14" class="st40"/><polygon points="271.66 135.99 271.52 130.04 314.09 128.43 314.24 134.46" class="st40"/><polygon points="271.69 149.51 271.6 143.57 299.12 142.92 299.21 148.92" class="st40"/><polygon points="259.22 163.21 259.15 157.29 312.68 156.43 312.75 162.46" class="st40"/><polygon points="271.78 176.55 271.71 170.6 305.23 170.26 305.29 176.28" class="st40"/><path d="M442.36,30.62L223.64,47.51c-1.42,0.09-2.56,1.34-2.59,2.84l-2.41,141.41c-0.03,1.55,1.17,2.84,2.65,2.85 l218.15,3.84c1.66,0.01,3.01-1.28,3.04-2.91l3-162C445.51,31.83,444.09,30.51,442.36,30.62z M429.76,186.19 c-0.03,1.42-1.21,2.56-2.65,2.55l-196.39-3.12c-1.31,0-2.37-1.13-2.34-2.51l2.14-124.82c0.02-1.32,1.03-2.42,2.29-2.5l196.84-14.22 c1.51-0.09,2.75,1.07,2.72,2.56L429.76,186.19z" class="st58"/><polygon points="262.19 63.01 245.53 64.21 245.73 70.11 262.21 68.95" class="st2"/><polygon points="274.74 89.22 258.58 90.13 258.75 96.05 274.76 95.18" class="st2"/><polygon points="276.06 157.02 259.15 157.29 259.22 163.21 276.08 162.97" class="st2"/><path d="M419.77,256.13c8.64,0.97,13.82-0.71,23.36-7.39s7.86-13.35-0.71-14.3s-22.64,5.72-27.88,11.2 C409.29,251.12,413.14,255.39,419.77,256.13z" class="st40"/><path d="M444.32,245.12c-10.99,7.69-17.79,10.29-27.72,8.93c-1.82-0.25-3.21-0.89-4.28-2.2 c0.8,2.29,2.55,3.92,6.33,4.34c8.64,0.97,14.95-0.78,24.48-7.45c4.3-3.01,6.3-6.01,6.44-8.49 C448.35,242.03,447,243.25,444.32,245.12z" class="st59"/><g><path d="M423.88,245.8c-0.13,0-0.27-0.06-0.35-0.18c-0.14-0.19-0.09-0.46,0.1-0.6c11.46-8.13,19.79-9.37,20.14-9.42 c0.24-0.03,0.45,0.13,0.48,0.36c0.03,0.23-0.13,0.45-0.36,0.48c-0.08,0.01-8.49,1.28-19.77,9.27 C424.05,245.78,423.97,245.8,423.88,245.8z" class="st128"/></g><ellipse cx="438.6" cy="237.49" class="st59" rx="2.79" ry="1.05"/><path d="M464.33,93.81l-106.12,3.34c-1.52,0.09-2.79-1.12-2.8-2.63l-0.07-20.28c0-1.4,1.07-2.55,2.47-2.65 l106.45-4.61c1.54-0.11,2.85,1.13,2.83,2.67l-0.26,21.54C466.81,92.59,465.72,93.73,464.33,93.81z" class="st125"/><g><path d="M245.54,133.85l-116.35,0.98c-1.56,0.01-2.83-1.24-2.83-2.8V90.29c0-1.56,1.26-2.87,2.83-2.92l116.35-4.19 c1.78-0.06,3.23,1.24,3.23,2.91v44.71C248.78,132.47,247.33,133.84,245.54,133.85z" class="st2"/><g><polygon points="182.42 124.51 237.07 123.74 237.07 93.59 182.42 95.25" class="st6"/><polygon points="196.11 106.63 186.92 124.44 233.68 123.79 224.47 104.91 215.36 123.13 205.66 123.27" class="st139"/><polygon points="210.49 98.97 200.08 124.26 222.37 123.95" class="st38"/></g><g><path d="M169.72,99.63l-32.39,0.91c-0.8,0.02-1.44-0.6-1.44-1.39s0.64-1.45,1.44-1.47l32.39-0.97 c0.83-0.02,1.5,0.61,1.5,1.41C171.22,98.93,170.55,99.61,169.72,99.63z" class="st6"/></g><g><path d="M169.72,107.4l-32.39,0.77c-0.8,0.02-1.44-0.61-1.44-1.4s0.64-1.45,1.44-1.47l32.39-0.82 c0.83-0.02,1.5,0.62,1.5,1.42C171.22,106.72,170.55,107.38,169.72,107.4z" class="st6"/></g><g><path d="M161.61,115.34l-24.28,0.47c-0.8,0.02-1.44-0.61-1.44-1.4c0-0.79,0.64-1.44,1.44-1.46l24.28-0.51 c0.82-0.02,1.48,0.62,1.48,1.42S162.43,115.32,161.61,115.34z" class="st6"/></g></g><path d="M167.29,174.86l-53.85-1.15c-1.28-0.05-2.29-1.1-2.29-2.38V133.8c0-1.31,1.06-2.38,2.38-2.38l53.85-0.84 c1.31,0,2.38,1.06,2.38,2.38v39.52C169.76,173.84,168.64,174.92,167.29,174.86z" class="st93"/><g><g><path d="M140.71,166.92c-8.16,0-14.81-6.64-14.81-14.81s6.64-14.81,14.81-14.81c8.16,0,14.8,6.64,14.8,14.81 S148.87,166.92,140.71,166.92z M140.71,142.17c-5.48,0-9.94,4.46-9.94,9.94s4.46,9.94,9.94,9.94c5.48,0,9.94-4.46,9.94-9.94 S146.19,142.17,140.71,142.17z" class="st6"/></g><path d="M130.78,152.34c0-0.08-0.01-0.15-0.01-0.23c0-5.33,4.22-9.68,9.49-9.92v-4.86 c-7.95,0.24-14.35,6.77-14.35,14.78c0,0.08,0.01,0.15,0.01,0.23H130.78z" class="st125"/><path d="M130.77,152.11L130.77,152.11h-4.86l0,0c0,4.9,2.41,9.24,6.09,11.94l3.22-3.67 C132.53,158.6,130.77,155.56,130.77,152.11z" class="st38"/></g><g><polygon points="511.24 178.99 393.6 175.64 393.6 116.72 511.24 114.06" class="st140"/><polygon points="426.72 115.97 393.6 116.72 393.6 175.64 426.72 176.59" class="st6"/><g><polygon points="433.21 150.81 437.12 150.84 437.12 139.74 433.21 139.75" class="st93"/><polygon points="442.17 150.87 446.13 150.9 446.13 131.25 442.17 131.29" class="st93"/><polygon points="451.25 150.93 455.28 150.96 455.28 134.36 451.25 134.39" class="st93"/><polygon points="460.48 150.99 464.56 151.02 464.56 131.08 460.48 131.12" class="st93"/><polygon points="469.84 151.06 473.99 151.09 473.99 120.08 469.84 120.16" class="st93"/><polygon points="479.36 151.12 483.57 151.15 483.57 123.26 479.36 123.33" class="st93"/><polygon points="489.02 138.09 489.02 151.19 493.3 151.21 493.3 138.07" class="st93"/></g><g><polygon points="437.77 160.13 441.7 160.18 441.7 150.16 437.77 150.14" class="st37"/><polygon points="446.79 168.68 450.78 168.76 450.78 150.22 446.79 150.19" class="st37"/><polygon points="455.95 164.56 460 164.63 460 150.27 455.95 150.25" class="st37"/><polygon points="465.24 169.07 469.36 169.16 469.36 150.33 465.24 150.3" class="st37"/><polygon points="474.68 173.74 478.87 173.85 478.87 150.39 474.68 150.36" class="st37"/><polygon points="484.27 169.48 488.52 169.57 488.52 150.45 484.27 150.42" class="st37"/><polygon points="494.01 150.48 494.01 160.94 498.32 161 498.32 150.51" class="st37"/></g><g><polygon points="500.36 151.45 430.31 150.97 430.31 149.53 500.36 149.92" class="st6"/></g><g><polygon points="417.82 132.22 404.22 132.34 404.22 130.2 417.82 130.05" class="st4"/></g><g><polygon points="414.77 137.67 404.22 137.71 404.22 135.56 414.77 135.5" class="st4"/></g><g><polygon points="417.82 146.58 404.22 146.54 404.22 144.39 417.82 144.41" class="st4"/></g><g><polygon points="414.31 151.98 404.22 151.9 404.22 149.76 414.31 149.82" class="st4"/></g><g><polygon points="413.39 157.39 404.22 157.27 404.22 155.13 413.39 155.22" class="st4"/></g><path d="M401.13,131.74c0,1.04-0.77,1.89-1.71,1.89c-0.94,0.01-1.71-0.83-1.71-1.86s0.76-1.88,1.71-1.89 C400.36,129.87,401.13,130.71,401.13,131.74z" class="st140"/><path d="M401.13,145.61c0,1.04-0.77,1.88-1.71,1.87c-0.94,0-1.71-0.85-1.71-1.88s0.76-1.87,1.71-1.87 C400.36,143.73,401.13,144.57,401.13,145.61z" class="st140"/></g></g></svg>